<?xml version="1.0" standalone="no"?>
<!DOCTYPE svg PUBLIC "-//W3C//DTD SVG 1.1//EN" "http://www.w3.org/Graphics/SVG/1.1/DTD/svg11.dtd">
<svg viewBox="0 0 1024 1024" version="1.1" xmlns="http://www.w3.org/2000/svg" xmlns:xlink="http://www.w3.org/1999/xlink" width="200" height="200">
<path d="M448.048419 980.261369c0 23.494319 28.555397 42.52298 63.809279 42.52298 35.229073 0 63.809279-19.053471 63.809279-42.52298 0-23.494319-28.555397-42.52298-63.809279-42.52298s-63.809279 19.053471-63.809279 42.52298z m0 0" fill="#000000"></path>
<path d="M554.380678 594.106069v375.536959a10.61834 10.61834 0 0 1-10.618341 10.618341h-63.809279a10.61834 10.61834 0 0 1-10.61834-10.618341V594.106069C325.1188 573.415191 214.147219 449.716487 214.147219 299.769643 214.147219 135.334222 347.447086 2.034355 511.882507 2.034355s297.735288 133.299867 297.735288 297.735288c-0.049618 149.922035-111.021199 273.645548-255.237117 294.336426z m0 0" fill="#000000"></path>
<path d="M426.786929 299.744833a85.070769 85.070769 0 1 0 170.116729 0 85.070769 85.070769 0 0 0-170.116729 0z m0 0" fill="#FFFFFF"></path>
</svg>