<?xml version="1.0" encoding="utf-8"?>
<!-- Generator: Adobe Illustrator 16.0.0, SVG Export Plug-In . SVG Version: 6.00 Build 0)  -->
<!DOCTYPE svg PUBLIC "-//W3C//DTD SVG 1.1//EN" "http://www.w3.org/Graphics/SVG/1.1/DTD/svg11.dtd">
<svg version="1.1" id="图层_1" xmlns="http://www.w3.org/2000/svg" xmlns:xlink="http://www.w3.org/1999/xlink" x="0px" y="0px"
	 width="200px" height="200px" viewBox="0 0 200 200" enable-background="new 0 0 200 200" xml:space="preserve">
<path fill="#43BA62" d="M165.097,98.733c-3.031,2.788-7.716,2.708-10.651-0.18c-2.949-2.907-3.214-7.577-0.612-10.798l13.617-14.482
	c10.149-12.818,8.859-31.259-2.977-42.539c-11.823-12.498-29.271-13.617-39.118-3.114L87.323,68.186
	c-10.156,12.82-8.866,31.269,2.977,42.549c3.039,3.123,3.039,8.099,0,11.222c-2.99,3.068-7.902,3.134-10.971,0.144
	c-0.049-0.047-0.097-0.096-0.144-0.144c-17.629-17.452-18.919-45.51-2.966-64.506l38.021-40.322
	c16.361-17.343,44.123-15.907,61.813,3.177c17.123,17.42,18.304,44.966,2.734,63.787l-13.69,14.63V98.733z M34.904,101.268
	c3.03-2.789,7.715-2.71,10.65,0.179c2.956,2.882,3.219,7.6,0.612,10.798L32.55,126.727c-10.149,12.819-8.859,31.259,2.977,42.539
	c11.822,12.497,29.271,13.616,39.119,3.114l38.032-40.566c10.155-12.819,8.865-31.267-2.978-42.548
	c-3.039-3.123-3.039-8.098,0-11.221c2.99-3.069,7.902-3.134,10.972-0.144c0.048,0.047,0.097,0.096,0.144,0.144
	c17.629,17.452,18.92,45.509,2.966,64.505l-38.021,40.322c-16.361,17.342-44.122,15.906-61.813-3.178
	c-17.124-17.419-18.304-44.966-2.734-63.787l13.691-14.63V101.268z"/>
</svg>
