<?xml version="1.0" encoding="utf-8"?>
<!-- Generator: Adobe Illustrator 16.0.0, SVG Export Plug-In . SVG Version: 6.00 Build 0)  -->
<!DOCTYPE svg PUBLIC "-//W3C//DTD SVG 1.1//EN" "http://www.w3.org/Graphics/SVG/1.1/DTD/svg11.dtd">
<svg version="1.1" id="图层_1" xmlns="http://www.w3.org/2000/svg" xmlns:xlink="http://www.w3.org/1999/xlink" x="0px" y="0px"
	 width="200px" height="200px" viewBox="0 0 200 200" enable-background="new 0 0 200 200" xml:space="preserve">
<path fill="#170B1A" d="M41.944,5h116.111C178.428,5,195,21.572,195,41.944v116.111C195,178.428,178.428,195,158.056,195H41.944
	C21.572,195,5,178.428,5,158.056V41.944C5,21.572,21.572,5,41.944,5z"/>
<path fill="#25F4EE" d="M99.894,61.05c0.106-11.928,0-23.855,0.106-35.783h24.383c-0.104,2.111,0.212,4.222,0.528,6.228h-17.943
	v96.9c0.104,4.117-0.95,8.233-2.956,11.823c-3.257,5.563-8.994,9.216-15.412,9.815c-4.011,0.316-8.128-0.422-11.717-2.428
	c-2.744-1.478-5.066-3.588-6.861-6.123c6.228,3.485,14.356,3.168,20.372-0.738C96.2,137.156,100,130.4,100,123.433
	C99.894,102.639,99.894,81.844,99.894,61.05z M140.111,54.189c3.377,2.111,7.177,3.8,11.083,4.644
	c2.323,0.528,4.645,0.739,7.073,0.739v5.489C151.231,63.412,144.886,59.612,140.111,54.189z"/>
<path fill="#25F4EE" d="M55.983,84.589c8.814-5.485,19.278-7.69,29.556-6.228v5.806c-2.745,0.105-5.383,0.422-8.128,0.95
	c-6.569,1.362-12.764,4.135-18.155,8.127c-5.806,4.328-10.239,10.238-13.3,16.784c-2.962,6.265-4.443,13.126-4.328,20.055
	c0,7.6,2.111,14.989,5.7,21.639c1.688,3.062,3.589,6.017,6.122,8.445c-5.172-3.589-9.5-8.445-12.667-13.935
	c-4.328-7.282-6.439-15.832-6.228-24.383c0.316-7.812,2.533-15.517,6.65-22.271C44.865,93.474,49.932,88.334,55.983,84.589z"/>
<path fill="#FFFFFF" d="M106.968,31.494h18.05c0.633,3.484,1.899,6.756,3.482,9.923c2.533,4.855,6.122,9.183,10.768,12.033
	c0.315,0.211,0.526,0.422,0.738,0.739c4.75,5.383,11.188,9.289,18.262,10.872c0.104,6.333,0,12.772,0,19.106
	c-11.929,0.105-23.856-3.695-33.567-10.661c0,15.2,0,30.4,0.105,45.6c0,2.006,0.105,4.012,0,6.122
	c-0.575,7.438-2.812,14.652-6.544,21.111c-3.167,5.594-7.494,10.556-12.667,14.355c-6.712,4.944-14.783,7.708-23.117,7.917
	c-4.222,0.106-8.445-0.105-12.561-1.056c-5.806-1.268-11.295-3.694-16.15-7.073l-0.316-0.315c-2.428-2.429-4.434-5.384-6.122-8.445
	c-3.589-6.544-5.7-14.039-5.7-21.639c-0.106-6.861,1.372-13.827,4.328-20.055c3.061-6.546,7.6-12.456,13.3-16.784
	c5.391-3.993,11.586-6.766,18.155-8.127c2.639-0.528,5.383-0.845,8.128-0.95c0.105,2.427,0,4.855,0.105,7.177v12.35
	c-3.061-1.056-6.438-1.056-9.605-0.316c-3.8,0.844-7.389,2.533-10.345,5.066c-1.794,1.584-3.377,3.483-4.433,5.594
	c-1.9,3.59-2.533,7.812-2.111,11.823c0.422,3.906,2.111,7.706,4.645,10.661c1.689,2.11,3.906,3.695,6.123,5.172
	c1.794,2.533,4.116,4.645,6.861,6.123c3.589,1.9,7.706,2.744,11.716,2.427c6.334-0.422,12.244-4.327,15.412-9.816
	c2.005-3.589,3.062-7.706,2.955-11.822C107.072,96.094,106.968,63.794,106.968,31.494L106.968,31.494z"/>
<path fill="#FE2C55" d="M125.018,31.494c2.11,0.106,4.221,0,6.438,0c0,7.073,2.216,14.145,6.332,19.95
	c0.529,0.739,1.057,1.373,1.584,2.006c-4.645-2.85-8.339-7.178-10.767-12.033C127.022,38.356,125.756,34.978,125.018,31.494z
	 M158.268,65.061c2.321,0.528,4.644,0.739,7.071,0.739v24.594c-12.033,0.106-24.066-3.905-33.883-10.977v48.766
	c0.105,3.695-0.212,7.39-1.056,10.979c-2.372,11.028-8.771,20.776-17.944,27.339c-4.856,3.482-10.345,5.911-16.045,7.178
	c-6.967,1.584-14.25,1.479-21.111-0.316c-8.227-2.157-15.663-6.626-21.428-12.879c4.856,3.485,10.345,5.806,16.15,7.073
	c4.117,0.95,8.339,1.162,12.561,1.056c8.335-0.209,16.404-2.973,23.117-7.917c5.172-3.8,9.395-8.762,12.667-14.355
	c3.732-6.459,5.969-13.673,6.544-21.111c0.106-2.006,0.106-4.01,0-6.122c-0.105-15.199-0.105-30.4-0.105-45.6
	c9.712,6.966,21.639,10.766,33.566,10.661C158.268,77.833,158.372,71.394,158.268,65.061L158.268,65.061z"/>
<path fill="#FE2C55" d="M85.644,84.061c2.323,0,4.75,0.106,7.073,0.422v25.229c-3.378-1.162-7.178-1.268-10.661-0.424
	c-6.65,1.479-12.245,6.545-14.567,12.984c-2.322,6.333-1.372,13.722,2.639,19.105c-2.322-1.372-4.434-3.061-6.122-5.172
	c-2.534-2.956-4.223-6.756-4.645-10.662c-0.422-4.011,0.211-8.232,2.111-11.822c1.056-2.11,2.639-4.01,4.434-5.594
	c2.955-2.533,6.65-4.116,10.344-5.066c3.167-0.739,6.544-0.739,9.606,0.316v-12.35C85.644,88.917,85.75,86.489,85.644,84.061z"/>
</svg>
