<?xml version="1.0" standalone="no"?>
<!DOCTYPE svg PUBLIC "-//W3C//DTD SVG 1.1//EN" "http://www.w3.org/Graphics/SVG/1.1/DTD/svg11.dtd">
<svg viewBox="0 0 1024 1024" version="1.1" xmlns="http://www.w3.org/2000/svg" xmlns:xlink="http://www.w3.org/1999/xlink" width="200" height="200">
<path d="M621.9264 176.9216l-69.8112 69.7088 123.3152 123.3152-37.5296 37.5296-123.3152-123.3152-69.7088 69.7088 123.3152 123.3152-37.5296 37.5296-123.3152-123.3152-69.7088 69.7088 123.3152 123.3152-37.5296 37.5296-123.3152-123.3152L230.4 568.3456l123.3152 123.3152-37.5296 37.5296-123.1616-123.3152-117.9392 117.9392 225.28 225.28 643.2256-643.5072-225.28-225.28-64.3328 64.3328 123.4176 123.3152-37.5296 37.5296-117.9392-128.6656zM718.4384 0L1024 305.5872 305.5872 1024 0 718.5152z" fill="#000000"></path>
</svg>