<?xml version="1.0" standalone="no"?>
<!DOCTYPE svg PUBLIC "-//W3C//DTD SVG 1.1//EN" "http://www.w3.org/Graphics/SVG/1.1/DTD/svg11.dtd">
<svg viewBox="0 0 1024 1024" version="1.1" xmlns="http://www.w3.org/2000/svg" xmlns:xlink="http://www.w3.org/1999/xlink" width="200" height="200">
<path d="M302.08 266.24l-17.92-17.92-35.84 35.84 17.92 17.92 471.04 473.6 35.84-35.84-17.92-17.92L302.08 266.24z m604.16 509.44V248.32h66.56V51.2h-197.12v66.56H248.32V51.2H51.2v197.12h66.56v524.8H51.2v199.68h197.12v-66.56h524.8v66.56h199.68v-197.12h-66.56zM839.68 117.76h66.56v66.56h-66.56V117.76z m-721.92 0h66.56v64H117.76v-64z m66.56 788.48H117.76v-66.56h66.56v66.56z m591.36-130.56v66.56H248.32v-66.56h-64V248.32h66.56v-64h524.8v66.56h66.56v524.8h-66.56z m130.56 130.56h-66.56v-66.56h66.56v66.56z" fill="#000000"></path>
</svg>