<?xml version="1.0" encoding="utf-8"?>
<!-- Generator: Adobe Illustrator 16.0.0, SVG Export Plug-In . SVG Version: 6.00 Build 0)  -->
<!DOCTYPE svg PUBLIC "-//W3C//DTD SVG 1.1//EN" "http://www.w3.org/Graphics/SVG/1.1/DTD/svg11.dtd">
<svg version="1.1" id="图层_1" xmlns="http://www.w3.org/2000/svg" xmlns:xlink="http://www.w3.org/1999/xlink" x="0px" y="0px"
	 width="200px" height="200px" viewBox="0 0 200 200" enable-background="new 0 0 200 200" xml:space="preserve">
<path fill="#666666" d="M81.998,93.446H16.585c-6.313,0-11.449-5.135-11.449-11.448V16.585c0-6.313,5.135-11.449,11.449-11.449
	h65.412c6.313,0,11.449,5.135,11.449,11.449v65.412C93.446,88.311,88.311,93.446,81.998,93.446z M19.854,78.728h58.874V19.854
	H19.854V78.728z M183.555,93.446h-65.412c-6.313,0-11.448-5.135-11.448-11.448V16.585c0-6.313,5.136-11.449,11.448-11.449h65.412
	c6.313,0,11.449,5.135,11.449,11.449v65.412C195.004,88.311,189.867,93.446,183.555,93.446z M121.411,78.728h58.873V19.854h-58.873
	V78.728z M81.998,195.004H16.585c-6.313,0-11.449-5.137-11.449-11.449v-65.412c0-6.313,5.135-11.449,11.449-11.449h65.412
	c6.313,0,11.449,5.137,11.449,11.449v65.412C93.446,189.867,88.311,195.004,81.998,195.004z M19.854,180.284h58.874v-58.873H19.854
	V180.284z"/>
<path fill="#666666" d="M62.537,55.729c0,4.574-3.707,8.28-8.279,8.28h-9.935c-4.572,0-8.279-3.706-8.279-8.28v-9.935
	c0-4.574,3.708-8.279,8.279-8.279h9.935c4.572,0,8.279,3.706,8.279,8.279V55.729z M164.094,55.729c0,4.574-3.706,8.28-8.278,8.28
	h-9.936c-4.572,0-8.279-3.706-8.279-8.28v-9.935c0-4.574,3.707-8.279,8.279-8.279h9.936c4.572,0,8.278,3.706,8.278,8.279V55.729z
	 M62.537,157.287c0,4.574-3.707,8.279-8.279,8.279h-9.935c-4.572,0-8.279-3.705-8.279-8.279v-9.936c0-4.573,3.708-8.278,8.279-8.278
	h9.935c4.572,0,8.279,3.705,8.279,8.278V157.287z M114.051,195.004c-4.063,0-7.358-3.296-7.358-7.36v-73.593
	c0-4.064,3.295-7.358,7.358-7.358h30.91c4.063,0,7.359,3.294,7.359,7.358v36.797h27.964v-36.797c0-4.064,3.296-7.358,7.359-7.358
	s7.36,3.294,7.36,7.358v44.156c0,4.064-3.297,7.359-7.36,7.359h-42.683c-4.063,0-7.36-3.295-7.36-7.359v-36.796h-16.189v66.232
	C121.411,191.708,118.114,195.004,114.051,195.004L114.051,195.004z"/>
<path fill="#666666" d="M187.644,195.004h-42.683c-4.063,0-7.36-3.296-7.36-7.36c0-4.065,3.297-7.359,7.36-7.359h42.683
	c4.063,0,7.36,3.294,7.36,7.359C195.004,191.708,191.707,195.004,187.644,195.004z"/>
</svg>
