<?xml version="1.0" standalone="no"?>
<!DOCTYPE svg PUBLIC "-//W3C//DTD SVG 1.1//EN" "http://www.w3.org/Graphics/SVG/1.1/DTD/svg11.dtd">
<svg viewBox="0 0 1024 1024" version="1.1" xmlns="http://www.w3.org/2000/svg" xmlns:xlink="http://www.w3.org/1999/xlink" width="200" height="200">
<path d="M687.456 356.704c11.408 0 22.608 0.832 33.904 2.08-30.4-141.44-181.584-246.56-354.24-246.56C174.096 112.224 16 243.744 16 410.816c0 96.432 52.576 175.584 140.48 237.088l-35.072 105.6 122.752-61.504c43.888 8.608 79.104 17.536 122.96 17.536 11.04 0 21.92-0.496 32.736-1.28a263.2 263.2 0 0 1-10.864-73.664c0.08-153.392 131.776-277.888 298.464-277.888z m-188.72-95.2c26.528 0 43.936 17.456 43.936 43.84 0 26.32-17.408 43.92-43.936 43.92-26.24 0-52.656-17.6-52.656-43.888 0-26.464 26.368-43.824 52.64-43.824v-0.032zM253.008 349.28c-26.336 0-52.864-17.6-52.864-43.888 0-26.464 26.528-43.824 52.896-43.824 26.336 0 43.824 17.36 43.824 43.824 0 26.288-17.488 43.888-43.824 43.888h-0.032z" fill="#48BD1C"></path>
<path d="M1008 630.384c0-140.368-140.48-254.784-298.256-254.784-167.12 0-298.592 114.496-298.592 254.784 0 140.736 131.52 254.72 298.56 254.72 34.96 0 70.24-8.704 105.344-17.52l96.32 52.832-26.464-87.792c70.56-52.96 123.088-123.088 123.088-202.24z m-395.152-44c-17.392 0-35.04-17.344-35.04-35.072 0-17.488 17.648-35.104 35.04-35.104 26.72 0 43.984 17.6 43.984 35.136 0 17.696-17.28 35.04-43.936 35.04h-0.048z m193.152 0c-17.28 0-34.928-17.344-34.928-35.072 0-17.488 17.568-35.104 34.928-35.104 26.416 0 43.984 17.6 43.984 35.136 0 17.696-17.568 35.04-43.984 35.04z" fill="#48BD1C"></path>
</svg>