<?xml version="1.0" standalone="no"?>
<!DOCTYPE svg PUBLIC "-//W3C//DTD SVG 1.1//EN" "http://www.w3.org/Graphics/SVG/1.1/DTD/svg11.dtd">
<svg viewBox="0 0 1024 1024" version="1.1" xmlns="http://www.w3.org/2000/svg" xmlns:xlink="http://www.w3.org/1999/xlink" width="1024" height="1024">
	<path d="M512.40884 1024a511.992577 511.992577 0 1 1 511.591329-511.591329 511.591329 511.591329 0 0 1-511.591329 511.591329z m0-63.798448A448.194129 448.194129 0 1 0 64.214711 512.408671a447.792881 447.792881 0 0 0 448.194129 447.792881z m175.746669-394.828131l-204.235284 136.424354a63.798448 63.798448 0 0 1-99.509529-53.365998V375.984317A63.798448 63.798448 0 0 1 483.920225 321.414575l204.235284 136.424354a63.3972 63.3972 0 0 1 28.488615 53.365998 62.594704 62.594704 0 0 1-28.488615 52.964749z" fill="#ff0000"></path>
</svg>