<?xml version="1.0" encoding="utf-8"?>
<!-- Generator: Adobe Illustrator 16.0.0, SVG Export Plug-In . SVG Version: 6.00 Build 0)  -->
<!DOCTYPE svg PUBLIC "-//W3C//DTD SVG 1.1//EN" "http://www.w3.org/Graphics/SVG/1.1/DTD/svg11.dtd">
<svg version="1.1" id="图层_1" xmlns="http://www.w3.org/2000/svg" xmlns:xlink="http://www.w3.org/1999/xlink" x="0px" y="0px"
	 width="200px" height="200px" viewBox="0 0 200 200" enable-background="new 0 0 200 200" xml:space="preserve">
<path fill="#43BA62" d="M100,33.333c-36.933,0-66.667,29.475-66.667,65.575c0,17.834,7.233,34.017,19.017,45.858
	c2.865,2.878,5.986,5.489,9.325,7.8c3.786,2.621,4.729,7.814,2.108,11.6c-2.621,3.786-7.814,4.73-11.6,2.109l0,0
	c-4.183-2.9-8.083-6.167-11.65-9.75C25.247,141.244,16.661,120.514,16.667,98.9c0-45.525,37.425-82.233,83.333-82.233
	s83.334,36.708,83.334,82.242c0,21.608-8.585,42.332-23.867,57.608c-3.566,3.592-7.467,6.858-11.65,9.75
	c-3.783,2.621-8.975,1.679-11.596-2.104s-1.679-8.975,2.104-11.596l0,0c3.341-2.311,6.466-4.922,9.333-7.8
	c12.174-12.155,19.013-28.655,19.008-45.858C166.666,62.809,136.934,33.333,100,33.333z M108.334,175
	c0,4.603-3.731,8.334-8.334,8.334s-8.333-3.731-8.333-8.334l0,0c0-4.603,3.731-8.334,8.333-8.334S108.334,170.397,108.334,175z
	 M83.333,91.667C83.333,82.462,90.795,75,100,75c9.205,0,16.666,7.462,16.666,16.667c0,6.983-5.232,14.225-14.582,21.567
	c-6.084,4.783-10.417,12.191-10.417,20.683v11.918c0,4.602,3.731,8.332,8.333,8.332s8.334-3.73,8.334-8.332v-11.918
	c0-2.649,1.375-5.475,4.049-7.574c10-7.85,20.951-19.441,20.951-34.675c0-18.409-14.924-33.333-33.334-33.333
	c-18.41,0-33.333,14.924-33.333,33.333c0,4.603,3.731,8.333,8.333,8.333S83.333,96.269,83.333,91.667z"/>
</svg>
