<?xml version="1.0" encoding="utf-8"?>
<!-- Generator: Adobe Illustrator 16.0.0, SVG Export Plug-In . SVG Version: 6.00 Build 0)  -->
<!DOCTYPE svg PUBLIC "-//W3C//DTD SVG 1.1//EN" "http://www.w3.org/Graphics/SVG/1.1/DTD/svg11.dtd">
<svg version="1.1" id="图层_1" xmlns="http://www.w3.org/2000/svg" xmlns:xlink="http://www.w3.org/1999/xlink" x="0px" y="0px"
	 width="100px" height="100px" viewBox="0 0 100 100" enable-background="new 0 0 100 100" xml:space="preserve">
<path fill="#0068FF" d="M59.477,40.552c0.455,0,0.825,0.367,0.829,0.822c0.003,0.451-0.361,0.819-0.813,0.823l0,0h-1.668v2.259
	c0,2.627-1.651,4.875-4.045,6.004c2.394,1.118,4.045,3.377,4.045,6.004v2.26h1.651c0.454,0,0.822,0.368,0.822,0.822
	s-0.368,0.822-0.822,0.822H41.309l-0.149-0.014c-0.448-0.065-0.758-0.482-0.693-0.931c0.061-0.416,0.426-0.718,0.845-0.701h1.665
	v-2.259c0-2.627,1.649-4.875,4.045-6.004c-2.396-1.118-4.045-3.377-4.045-6.004v-2.26h-1.665c-0.454,0-0.822-0.368-0.822-0.822
	c0-0.454,0.368-0.822,0.822-0.822l0,0H59.477z M56.174,42.197H44.623v2.247c0,1.957,1.233,3.757,3.133,4.662
	c0.575,0.302,0.903,0.829,0.903,1.354c0.017,0.598-0.346,1.14-0.903,1.354c-1.888,0.906-3.133,2.706-3.131,4.662v2.27h0.92v-0.958
	c0-1.767,0.651-3.704,2.669-4.881l0.33-0.181c0.754-0.325,1.371-1.014,1.852-2.064c0.38,0.974,1.024,1.661,1.935,2.064
	c2.478,1.28,2.868,3.203,2.868,5.062v0.957h0.977v-2.257c0-1.957-1.232-3.757-3.131-4.663c-0.575-0.303-0.903-0.827-0.903-1.355
	c0-0.603,0.328-1.127,0.903-1.352c1.887-0.903,3.131-2.704,3.131-4.662V42.197L56.174,42.197z M55.026,45.506
	c0,1.073-1.321,2.275-2.554,2.786c-0.735,0.305-1.43,0.88-2.079,1.724c-0.614-0.844-1.288-1.418-2.016-1.724
	c-1.316-0.551-2.443-1.656-2.443-2.786H55.026z"/>
</svg>
