<?xml version="1.0" standalone="no"?>
<!DOCTYPE svg PUBLIC "-//W3C//DTD SVG 1.1//EN" "http://www.w3.org/Graphics/SVG/1.1/DTD/svg11.dtd">
<svg viewBox="0 0 1024 1024" version="1.1" xmlns="http://www.w3.org/2000/svg" xmlns:xlink="http://www.w3.org/1999/xlink" width="200" height="200">
<path d="M301.781333 151.765333l-26.837333 6.656C158.357333 187.306667 85.333333 236.202667 85.333333 297.749333c0 61.568 73.024 110.442667 189.610667 139.328 68.736 17.258667 150.485333 26.602667 236.074667 26.602667 85.589333 0 167.317333-9.344 236.16-26.645333 116.48-28.864 189.525333-77.738667 189.525333-139.306667 0-61.546667-73.002667-110.442667-189.610667-139.328l-26.837333-6.634667v247.189334c-61.824 13.909333-133.845333 21.44-209.237333 21.44-75.413333 0-147.477333-7.509333-209.237334-21.418667V151.722667v0.042666zM763.52 207.744c82.389333 24.469333 129.856 59.157333 129.856 90.005333 0 28.885333-41.557333 61.098667-114.389333 85.184a11.882667 11.882667 0 0 1-15.488-11.328V207.722667v0.021333zM128.618667 297.749333c0-30.869333 47.466667-65.536 129.877333-90.048v168.362667a8.704 8.704 0 0 1-11.306667 8.234667c-75.413333-24.256-118.570667-57.109333-118.570666-86.549334z m0 0" fill="#43BA62"></path>
<path d="M893.397333 297.749333v427.626667c0 61.632-170.816 122.645333-382.378666 122.645333s-382.4-61.013333-382.4-122.645333V297.749333H85.333333v427.626667c0 97.664 191.104 165.930667 425.685334 165.930667 234.56 0 425.664-68.288 425.664-165.930667V297.749333h-43.285334z m0 0" fill="#43BA62"></path>
<path d="M445.482667 747.2l78.464-117.696a10.709333 10.709333 0 0 1 17.194666-0.832l183.978667 225.792 33.536-27.349333-211.946667-260.16a21.226667 21.226667 0 0 0-34.133333 1.642666l-81.429333 122.133334a10.666667 10.666667 0 0 1-16.277334 1.749333l-78.229333-75.818667a21.376 21.376 0 0 0-32.277333 2.922667L175.957333 799.36l35.2 25.173333 106.304-148.821333a10.858667 10.858667 0 0 1 16.405334-1.493333l78.869333 76.48a21.418667 21.418667 0 0 0 32.746667-3.498667z m375.765333-181.184a79.424 79.424 0 0 1-119.104 68.714667c-34.688-20.053333-50.56-64.085333-31.509333-104.277334a76.778667 76.778667 0 0 1 47.616-40.426666c53.952-15.594667 103.018667 24.469333 102.997333 75.989333z m-43.285333 0a36.096 36.096 0 1 0-72.170667 0.021333 36.096 36.096 0 0 0 72.170667-0.021333z m0 0" fill="#43BA62"></path>
<path d="M201.770667 800.896s112-157.269333 118.229333-155.52 97.770667 106.624 108.437333 90.624 88-135.317333 96.896-133.866667 205.333333 232.533333 205.333334 232.533334-105.770667 41.770667-187.562667 39.104-244.437333-16-274.666667-28.437334-66.666667-44.437333-66.666666-44.437333z" fill="#43BA62"></path>
<path d="M741.866667 565.994667m-46.08 0a46.08 46.08 0 1 0 92.16 0 46.08 46.08 0 1 0-92.16 0Z" fill="#43BA62"></path>
<path d="M408.896 217.216v-52.693333H323.84V139.413333h100.970667c4.245333 0 7.658667 1.493333 10.24 4.458667a11.690667 11.690667 0 0 1 3.008 7.914667V303.893333a11.434667 11.434667 0 0 1-3.008 7.701334 13.226667 13.226667 0 0 1-10.24 4.672h-102.741334v-25.130667h86.826667v-48.832h-77.973333v-25.109333h77.973333zM569.472 190.869333h-29.184V164.522667H485.12v48.618666h75.392a8.96 8.96 0 0 1 8.96 8.96v81.770667a11.456 11.456 0 0 1-3.029333 7.701333 13.269333 13.269333 0 0 1-10.261334 4.672h-89.344a10.901333 10.901333 0 0 1-10.901333-10.901333V151.786667a11.562667 11.562667 0 0 1 3.008-7.914667 12.928 12.928 0 0 1 10.261333-4.458667h91.733334c4.714667 0 8.554667 3.818667 8.554666 8.554667v42.901333z m-84.352 100.266667h55.168v-52.885333H485.12v52.885333zM687.594667 139.413333c5.290667 0 9.045333 1.365333 11.221333 4.053334a16.32 16.32 0 0 1 3.264 10.538666v149.888a11.456 11.456 0 0 1-3.029333 7.701334 13.269333 13.269333 0 0 1-10.261334 4.672H601.6c-8.704 0-13.077333-5.077333-13.077333-15.210667V151.786667a11.882667 11.882667 0 0 1 3.029333-7.914667 12.842667 12.842667 0 0 1 10.24-4.458667h85.802667z m-69.845334 151.722667h55.168V164.522667h-55.168v126.613333z" fill="#43BA62"></path>
</svg>