<?xml version="1.0" encoding="utf-8"?>
<!-- Generator: Adobe Illustrator 16.0.0, SVG Export Plug-In . SVG Version: 6.00 Build 0)  -->
<!DOCTYPE svg PUBLIC "-//W3C//DTD SVG 1.1//EN" "http://www.w3.org/Graphics/SVG/1.1/DTD/svg11.dtd">
<svg version="1.1" id="图层_1" xmlns="http://www.w3.org/2000/svg" xmlns:xlink="http://www.w3.org/1999/xlink" x="0px" y="0px"
	 width="200px" height="200px" viewBox="0 0 200 200" enable-background="new 0 0 200 200" xml:space="preserve">
<path fill="#43BA62" stroke="#43BA62" stroke-width="4" stroke-miterlimit="10" d="M151.429,117.144
	c-9.364,0-17.595,4.564-22.807,11.518l-41.34-19.448c0.82-2.935,1.289-6.016,1.289-9.213c0-3.197-0.469-6.278-1.289-9.213
	l41.34-19.448c5.212,6.953,13.442,11.518,22.807,11.518c15.78,0,28.571-12.789,28.571-28.571s-12.791-28.571-28.571-28.571
	s-28.572,12.79-28.572,28.571c0,2.328,0.357,4.553,0.876,6.719L82.427,80.44c-6.194-8.895-16.479-14.726-28.142-14.726
	C35.347,65.714,20,81.06,20,100c0,18.939,15.347,34.286,34.286,34.286c11.663,0,21.947-5.833,28.142-14.727l41.305,19.436
	c-0.519,2.166-0.876,4.393-0.876,6.719c0,15.781,12.79,28.572,28.572,28.572S180,161.496,180,145.714
	C180,129.933,167.209,117.144,151.429,117.144z M151.429,37.144c9.452,0,17.143,7.689,17.143,17.142s-7.69,17.143-17.143,17.143
	s-17.143-7.689-17.143-17.143S141.975,37.144,151.429,37.144z M54.286,122.856c-12.6,0-22.857-10.257-22.857-22.857
	s10.256-22.857,22.857-22.857c12.601,0,22.858,10.257,22.858,22.858S66.887,122.856,54.286,122.856L54.286,122.856z
	 M151.429,162.856c-9.454,0-17.143-7.69-17.143-17.143c0-9.453,7.688-17.144,17.143-17.144s17.143,7.689,17.143,17.144
	C168.571,155.167,160.881,162.856,151.429,162.856z"/>
</svg>
