<?xml version="1.0" encoding="utf-8"?>
<!-- Generator: Adobe Illustrator 16.0.0, SVG Export Plug-In . SVG Version: 6.00 Build 0)  -->
<!DOCTYPE svg PUBLIC "-//W3C//DTD SVG 1.1//EN" "http://www.w3.org/Graphics/SVG/1.1/DTD/svg11.dtd">
<svg version="1.1" id="图层_1" xmlns="http://www.w3.org/2000/svg" xmlns:xlink="http://www.w3.org/1999/xlink" x="0px" y="0px"
	 width="200px" height="200px" viewBox="0 0 200 200" enable-background="new 0 0 200 200" xml:space="preserve">
<path d="M160.534,182.131l17.063-7.736c2.088,7.066,3.211,14.58,3.211,22.205v1.6h-18.546v-1.265
	C162.262,191.913,161.659,187.004,160.534,182.131z M128.099,139.655c-11.04-6.36-23.847-9.782-36.973-9.782
	c-39.181,0-71.016,29.941-71.016,66.912v1.266H1.604v-1.6c0-39.277,28.623-72.27,67.202-81.604
	c-23.966-8.89-39.663-30.5-39.663-54.416c0-32.21,27.78-58.507,62.023-58.507c34.164,0,62.023,26.185,62.023,58.507
	c0,24.809-16.459,45.972-39.663,54.416c8.351,2.046,16.46,5.244,23.846,9.447L128.099,139.655z M48.01,60.468
	c0,22.428,19.39,40.728,43.115,40.728c23.846,0,43.116-18.226,43.116-40.728c0-22.428-19.39-40.728-43.116-40.728
	C67.44,19.815,48.01,38.04,48.01,60.468z M198.391,94.353c-0.601,4.091-1.363,8.405-2.326,13.204
	c-0.964,4.648-1.968,9.447-3.093,14.245c-0.963,4.427-2.088,8.778-3.331,13.204l-15.216,7.848c1.847-0.558,3.693-0.893,5.42-1.487
	c1.486-0.446,3.051-0.893,4.656-1.265c1.606-0.446,2.932-0.781,3.935-1.265l-1.604,5.69c-0.483,1.6-0.844,2.827-1.245,3.533
	c-0.722,1.935-1.727,3.758-2.69,5.356c-0.963,1.711-2.088,3.087-2.81,4.314c-0.963,1.376-2.088,2.827-3.331,3.868l-14.011,3.868
	l11.44,1.935c-1.485,1.265-3.211,2.381-4.897,3.756c-1.486,1.042-3.212,2.158-5.18,3.422c-1.966,1.266-4.053,2.27-6.141,3.199
	c-2.208,1.041-4.657,1.488-7.105,1.6c-2.57,0-5.02-0.111-7.387-0.559c-2.811-0.334-5.54-1.041-8.109-1.822
	c0.843-1.264,1.726-2.492,2.689-4.092c0.844-1.375,1.847-2.863,3.051-4.537s2.449-3.645,3.692-5.803
	c3.573-5.802,7.107-11.381,10.56-16.96s6.504-10.601,9.193-15.138c3.211-5.245,6.141-10.117,8.951-14.804
	c-3.572,3.868-7.387,8.183-11.32,12.98c-3.935,4.798-7.747,9.56-11.441,14.469c-4.415,6.025-8.712,12.163-12.766,18.448
	c-0.964,1.377-1.967,2.976-3.052,4.649c-1.124,1.711-2.328,3.646-3.571,5.69c-1.246,2.046-2.449,3.98-3.935,6.137
	c-1.245,2.047-2.57,4.203-3.935,6.138c-3.051,4.649-6.143,9.56-9.354,14.58c0.12-1.487,0.36-3.422,0.843-5.802
	c0.481-2.046,1.244-4.538,2.328-7.514c0.964-2.976,2.568-6.584,4.536-10.601c1.365-2.491,2.328-4.538,2.931-6.025
	c0.602-1.487,1.245-2.491,1.605-3.31c0.241-0.559,0.482-1.266,0.964-1.711c-0.36-0.447-0.481-1.266-0.121-2.492
	c0.121-1.153,0.483-2.827,1.366-5.021c0.722-2.157,1.967-5.244,3.693-9.113c1.726-3.979,4.055-8.294,6.864-12.869
	c2.81-4.648,6.021-9.112,9.594-13.65c3.572-4.537,7.507-9,11.563-13.203c3.934-4.092,8.229-7.849,12.767-11.382
	c4.295-3.311,8.71-6.025,13.006-8.071c4.295-2.046,8.591-3.311,12.646-3.533C199.234,86.988,198.994,90.261,198.391,94.353
	L198.391,94.353z"/>
</svg>
