<?xml version="1.0" encoding="utf-8"?>
<!-- Generator: Adobe Illustrator 16.0.0, SVG Export Plug-In . SVG Version: 6.00 Build 0)  -->
<!DOCTYPE svg PUBLIC "-//W3C//DTD SVG 1.1//EN" "http://www.w3.org/Graphics/SVG/1.1/DTD/svg11.dtd">
<svg version="1.1" id="图层_1" xmlns="http://www.w3.org/2000/svg" xmlns:xlink="http://www.w3.org/1999/xlink" x="0px" y="0px"
	 width="200px" height="200px" viewBox="0 0 200 200" enable-background="new 0 0 200 200" xml:space="preserve">
<path fill="#FF0000" d="M78.747,196.318c-18.371-4.042-35.195-13.273-48.473-26.598c-8.996-8.987-16.174-19.626-21.139-31.334
	c-5.146-12.142-7.782-25.199-7.75-38.388C1.362,86.814,4.003,73.761,9.15,61.623C14.1,49.912,21.274,39.271,30.274,30.29
	C39.261,21.292,49.9,14.115,61.608,9.151c12.142-5.148,25.2-7.789,38.389-7.764c15.188-0.026,30.176,3.478,43.778,10.235
	c-4.582,3.589-8.366,8.092-11.112,13.223c-4.761-2.025-9.686-3.643-14.722-4.833c-5.892-1.313-11.909-1.97-17.944-1.959
	c-10.949-0.006-21.789,2.186-31.875,6.445c-9.736,4.116-18.581,10.083-26.042,17.57c-7.479,7.473-13.444,16.32-17.569,26.055
	c-4.28,10.081-6.477,20.923-6.459,31.875c-0.006,10.95,2.185,21.789,6.445,31.875c6.345,15.057,17.055,27.867,30.75,36.777
	c22.808,14.9,51.537,17.467,76.625,6.849c15.056-6.347,27.866-17.057,36.777-30.751c11.594-17.752,15.845-39.313,11.861-60.138
	c5.694-1.556,10.889-4.306,15.333-7.944l0.473,2.083c1.527,6.903,2.291,14,2.291,21.25s-0.764,14.347-2.291,21.25
	c-5.536,25.145-20.703,47.117-42.25,61.209c-16.055,10.559-34.854,16.181-54.069,16.167c-7.146,0.01-14.271-0.759-21.25-2.292
	V196.318z"/>
<path fill="#FF0000" d="M163.261,72.957c9.695,2.105,19.795-0.867,26.806-7.889c11.391-11.336,11.436-29.759,0.101-41.15
	c-0.033-0.033-0.067-0.067-0.101-0.1c-11.332-11.406-29.765-11.466-41.169-0.135c-2.705,2.688-4.857,5.881-6.331,9.399
	c-2.359,5.533-2.934,11.666-1.64,17.542c1.175,5.478,3.915,10.496,7.89,14.445C152.772,69.032,157.787,71.771,163.261,72.957
	L163.261,72.957z M174.191,56.041c-1.509,0.61-3.123,0.917-4.75,0.903c-1.627,0.014-3.241-0.293-4.75-0.903
	c-1.533-0.639-2.921-1.579-4.084-2.764c-1.189-1.162-2.134-2.55-2.777-4.083c-0.604-1.509-0.907-3.124-0.889-4.75
	c0-1.708,0.306-3.292,0.902-4.75c0.64-1.532,1.579-2.92,2.764-4.083c1.162-1.189,2.551-2.134,4.084-2.777
	c1.509-0.605,3.123-0.907,4.75-0.889c1.708,0,3.292,0.305,4.75,0.902c1.486,0.611,2.847,1.528,4.083,2.764
	c1.19,1.162,2.135,2.55,2.777,4.083c0.583,1.458,0.89,3.056,0.89,4.75c0.014,1.627-0.294,3.241-0.902,4.75
	c-0.64,1.532-1.579,2.92-2.765,4.083c-1.161,1.19-2.55,2.135-4.083,2.777V56.041z M90.803,142.081
	c6.058,1.328,12.331,1.328,18.389,0c5.161-1.124,10.068-3.196,14.473-6.11c4.896-3.221,9.084-7.409,12.305-12.305
	c6.391-9.681,8.594-21.532,6.11-32.862c-1.753-8.056-5.793-15.435-11.638-21.25c-5.828-5.825-13.202-9.859-21.25-11.625
	c-6.058-1.327-12.331-1.327-18.389,0c-5.159,1.121-10.066,3.188-14.472,6.098c-7.114,4.682-12.681,11.366-16,19.208
	c-4.553,10.708-4.553,22.807,0,33.515c4.355,10.337,12.58,18.561,22.917,22.916c2.458,1.042,4.986,1.847,7.556,2.402V142.081z
	 M105.872,125.734c-5.395,1.235-11.042,0.74-16.139-1.417c-7.812-3.317-13.563-10.175-15.473-18.443
	c-1.234-5.395-0.739-11.042,1.417-16.139c2.052-4.876,5.528-9.02,9.972-11.889c10.441-6.794,24.215-5.333,33,3.5
	c7.595,7.588,9.836,19.022,5.666,28.916C121.017,118.087,114.152,123.846,105.872,125.734L105.872,125.734z"/>
</svg>
