<?xml version="1.0" encoding="utf-8"?>
<!-- Generator: Adobe Illustrator 16.0.0, SVG Export Plug-In . SVG Version: 6.00 Build 0)  -->
<!DOCTYPE svg PUBLIC "-//W3C//DTD SVG 1.1//EN" "http://www.w3.org/Graphics/SVG/1.1/DTD/svg11.dtd">
<svg version="1.1" id="图层_1" xmlns="http://www.w3.org/2000/svg" xmlns:xlink="http://www.w3.org/1999/xlink" x="0px" y="0px"
	 width="500px" height="500px" viewBox="0 0 500 500" enable-background="new 0 0 500 500" xml:space="preserve">
<defs>
	<linearGradient id="lg1" x1="0%" y1="50%" x2="100%" y2="50%">
		<stop offset="0%" stop-color="#0A6847" />
		<stop offset="100%" stop-color="#43BA62" />
	</linearGradient>
</defs>

<path fill="url(#lg1)" d="M383.742,110.299c-12.656,19.248-24.914,37.881-37.57,57.141c12.773,16.799,28.664,31.383,52.348,37.852
	c25.793,7.02,50.531,17.924,75.691,27.217c19.547,7.219,22.676,16.031,11.063,33.68c-22.746,34.617-55.852,51.68-96.516,54.258
	c-10.43,0.668-16.453,4.406-20.824,13.594c-11.168,23.344-24,45.961-33.984,69.773c-4.02,9.586-3.059,21.539-3.176,32.426
	c-0.375,37.113-18.75,55.746-55.805,55.793c-17.273,0.023-34.547,0.07-51.832-0.012c-34.307-0.152-55.459-19.406-53.314-53.32
	c2.848-45.07-26.314-76.664-43.5-113.309c-1.307-2.777-8.074-3.891-12.416-4.23c-39.316-3-72.398-17.73-96.076-50.332
	C2.039,249.066,4.887,239.92,29.941,230.814c20.256-7.383,40.307-15.434,60.873-21.814c25.547-7.934,49.236-17.988,62.748-42.27
	c-11.736-17.66-24.047-36.199-37.412-56.314c-6.252,0.363-15.217,1.465-24.17,1.307c-31.512-0.504-55.09-18.551-63.07-49.02
	c-2.76-10.559-3.48-21.732-4.383-32.672C23.613,18.904,26.654,8.943,39.838,8.586c12.867-0.352,16.91,8.689,16.887,20.256
	c0,4.787,0.105,9.621,0.768,14.361c4.295,30.732,23.051,42.434,52.641,33.686c2.654-16.799,4.553-33.445,8.08-49.717
	C121.5,12.02,130.547,5.176,140.508,9.078c12.85,5.039,12.059,14.842,8.941,26.279c-12.639,46.236,0.381,86.725,36.117,112.617
	c4.225,3.064,10.295,4.922,15.551,4.992c32.631,0.445,65.273,0.457,97.898,0c5.227-0.07,11.426-1.916,15.457-5.109
	c34.441-27.311,47.566-62.59,37.969-105.826c-0.938-4.213-2.402-8.297-3.434-12.48c-2.484-9.996,1.219-17.508,10.828-20.414
	c9.82-2.977,17.531,1.705,19.828,11.508c4.195,18.082,7.172,36.457,10.863,55.822c24.902,10.248,45.551-0.668,51.199-29.291
	c1.383-6.996,1.219-14.303,1.699-21.48c0.715-10.699,6.07-17.496,17.063-17.191c10.5,0.287,14.449,7.424,15.094,17.396
	C479.426,85.971,445.852,116.346,383.742,110.299z M267.082,458.984c26.707,2.25,30.867-2.016,31.699-26.848
	c0.445-13.676,0.293-28.441,5.367-40.676c10.969-26.484,25.195-51.609,37.887-77.391c2.063-4.195,4.43-8.824,4.5-13.289
	c0.387-23.484,1.113-47.027-0.27-70.436c-1.523-25.623-20.754-43.752-46.125-44.256c-33.539-0.674-67.113-0.398-100.664-0.047
	c-17.15,0.164-32.063,7.764-38.725,23.145c-14.197,32.824-7.969,67.477-4.898,101.602c0.041,0.398,0.557,0.75,0.779,1.195
	c9.697,18.691,18.697,37.781,29.273,55.969c11.959,20.566,17.145,41.953,15.826,65.813c-1.295,23.578,7.236,29.484,31.213,24.094
	c0.311-15.961,4.559-31.207-12.48-44.508c-16.799-13.148-14.051-40.125,1.605-55.207c15.375-14.777,40.594-14.73,55.922,0.152
	c15.598,15.117,18.211,42.141,1.359,55.207C262.266,426.781,266.895,442.086,267.082,458.984z M120.012,232.467
	c-24.205,8.871-46.74,17.139-70.875,25.986c20.689,21.199,43.477,29.625,70.875,29.566
	C120.012,269.469,120.012,251.908,120.012,232.467z M450.973,258.406c-24.961-9.076-47.637-17.309-71.063-25.816
	c0,19.137,0,36.715,0,55.5C407.227,288.102,429.973,279.676,450.973,258.406z M249.768,397.578c3.662-4.359,7.975-7.43,7.529-9.434
	c-0.727-3.223-4.588-5.754-7.119-8.555c-2.678,2.707-6.662,5.039-7.541,8.238C242.098,389.797,246.275,393.055,249.768,397.578z"/>
<path fill="url(#lg1)" d="M218.027,251.791c-0.158,9.779-3.674,18.896-16.629,18.744c-13.096-0.176-15.855-9.457-15.82-20.689
	c0.035-11.379,3.328-20.402,16.336-20.186C214.846,229.877,218.004,239.264,218.027,251.791z"/>
<path fill="url(#lg1)" d="M314.32,249.307c0.305,12.076-2.918,21.311-16.031,21.24c-12.891-0.094-16.254-9.234-16.277-20.461
	c-0.012-11.291,3.48-20.414,16.324-20.402C311.273,229.684,314.836,238.707,314.32,249.307z"/>
</svg>
