<?xml version="1.0" encoding="utf-8"?>
<!-- Generator: Adobe Illustrator 16.0.0, SVG Export Plug-In . SVG Version: 6.00 Build 0)  -->
<!DOCTYPE svg PUBLIC "-//W3C//DTD SVG 1.1//EN" "http://www.w3.org/Graphics/SVG/1.1/DTD/svg11.dtd">
<svg version="1.1" id="图层_1" xmlns="http://www.w3.org/2000/svg" xmlns:xlink="http://www.w3.org/1999/xlink" x="0px" y="0px"
	 width="100px" height="100px" viewBox="0 0 100 100" enable-background="new 0 0 100 100" xml:space="preserve">
<path fill="#FF0000" d="M44.004,65c0.607,3.313,3.787,5.508,7.1,4.9c2.493-0.457,4.443-2.408,4.9-4.9l4-55
	c-0.012-5.518-4.481-9.988-10-10c-5.675,0.14-10.162,4.854-10.022,10.529c0.004,0.157,0.012,0.314,0.022,0.471L44.004,65z
	 M50.004,80c-5.523,0-10,4.477-10,10c0,5.522,4.477,10,10,10c5.522,0,10-4.478,10-10c0.315-5.209-3.652-9.686-8.86-10
	C50.764,79.977,50.384,79.977,50.004,80z"/>
</svg>
