<?xml version="1.0" encoding="utf-8"?>
<!-- Generator: Adobe Illustrator 16.0.0, SVG Export Plug-In . SVG Version: 6.00 Build 0)  -->
<!DOCTYPE svg PUBLIC "-//W3C//DTD SVG 1.1//EN" "http://www.w3.org/Graphics/SVG/1.1/DTD/svg11.dtd">
<svg version="1.1" id="图层_1" xmlns="http://www.w3.org/2000/svg" xmlns:xlink="http://www.w3.org/1999/xlink" x="0px" y="0px"
	 width="500px" height="500px" viewBox="0 0 500 500" enable-background="new 0 0 500 500" xml:space="preserve">
<path fill="#EF4040" stroke="#FFFFFF" stroke-width="0" stroke-miterlimit="10" d="M249.421,16.181
	c82.554-0.225,151.05,59.748,160.953,140.385c4.944,40.256-4.803,77.031-27.294,111.129
	c-23.631,35.818-52.459,67.574-77.313,102.388c-20.151,28.22-37.318,57.888-44.543,92.327c-1.17,5.57-1.799,11.252-2.753,16.871
	c-0.673,3.961-2.937,6.371-7.108,6.363c-4.119-0.004-6.637-2.186-7.11-6.281c-6.065-52.505-34.677-93.878-66.055-133.879
	c-20.183-25.73-40.976-50.96-59.156-78.245c-63.877-95.868-13.787-221.947,98.613-247.575
	C228.6,17.169,239.716,15.939,249.421,16.181z"/>
<circle fill="#FFFFFF" cx="251.489" cy="176.442" r="112.746"/>
<path fill="#EF4040" d="M265.213,179.766h-27.452c-25.511,0-46.26,20.431-46.26,45.552v2.704c0,13.13,20.418,13.13,46.26,13.13
		h27.452c24.827,0,46.266,0,46.266-13.13v-2.704C311.479,200.203,290.725,179.766,265.213,179.766z M250.114,176.289
		c20.203,0,36.64-16.19,36.64-36.101c0-19.91-16.437-36.105-36.64-36.105c-20.204,0-36.637,16.203-36.637,36.105
		C213.477,160.092,229.914,176.289,250.114,176.289z"/>
</svg>
