<?xml version="1.0" encoding="utf-8"?>
<!-- Generator: Adobe Illustrator 16.0.0, SVG Export Plug-In . SVG Version: 6.00 Build 0)  -->
<!DOCTYPE svg PUBLIC "-//W3C//DTD SVG 1.1//EN" "http://www.w3.org/Graphics/SVG/1.1/DTD/svg11.dtd">
<svg version="1.1" id="图层_1" xmlns="http://www.w3.org/2000/svg" xmlns:xlink="http://www.w3.org/1999/xlink" x="0px" y="0px"
	 width="200px" height="200px" viewBox="0 0 200 200" enable-background="new 0 0 200 200" xml:space="preserve">
<rect x="62.5" y="35.5" fill="#FFFFFF" width="69" height="130"/>
<path fill="#43BA62" d="M118.896,64.57c-2.828,2.58-6.531,3.983-10.357,3.926c-3.852,0.04-7.577-1.36-10.448-3.926
	c-2.784-2.698-4.326-5.962-4.326-9.695c0-3.745,1.536-7.003,4.326-9.686c2.833-2.641,6.576-4.085,10.448-4.032
	c4.031,0,7.486,1.344,10.357,4.032c2.873,2.677,4.313,5.941,4.313,9.686C123.211,58.619,121.76,61.872,118.896,64.57z
	 M119.945,152.604c-4.889,1.914-8.815,3.444-11.801,4.416c-2.981,1.062-6.332,1.52-10.268,1.52c-5.941,0-10.64-1.43-13.904-4.305
	c-3.35-2.98-4.992-6.612-4.992-11.123c0-1.725,0.107-3.446,0.384-5.275c0.187-1.829,0.582-3.852,1.152-6.139l6.229-21.766
	c0.48-2.113,0.96-4.134,1.35-5.953c0.384-1.907,0.576-3.545,0.576-5.172c0-2.688-0.576-4.698-1.729-5.76
	c-1.152-1.051-3.36-1.632-6.619-1.632c-1.632,0-3.253,0.191-4.885,0.768c-1.723,0.48-3.168,0.96-4.314,1.35l1.632-6.619
	c3.792-1.6,7.662-3.009,11.595-4.224c3.749-1.248,7.2-1.824,10.464-1.824c5.952,0,10.549,1.44,13.813,4.315
	c3.169,2.88,4.79,6.539,4.79,11.125c0,0.966-0.106,2.603-0.3,5.003c-0.282,2.389-0.665,4.586-1.236,6.606l-6.145,21.676
	c-0.575,1.724-0.954,3.749-1.338,5.946c-0.393,1.668-0.618,3.37-0.678,5.082c0,2.875,0.678,4.79,2.01,5.847
	c1.26,1.062,3.463,1.638,6.722,1.638c1.429,0,3.167-0.283,5.082-0.773c1.813-0.561,3.254-1.046,4.11-1.43L119.945,152.604
	L119.945,152.604z M100,4.331c-53.035,0-96,42.875-96,95.712c0,52.757,42.965,95.627,96,95.627c53.027,0,96-42.876,96-95.622
	C196,47.205,153.027,4.331,100,4.331z"/>
</svg>
