<?xml version="1.0" encoding="utf-8"?>
<!-- Generator: Adobe Illustrator 16.0.0, SVG Export Plug-In . SVG Version: 6.00 Build 0)  -->
<!DOCTYPE svg PUBLIC "-//W3C//DTD SVG 1.1//EN" "http://www.w3.org/Graphics/SVG/1.1/DTD/svg11.dtd">
<svg version="1.1" id="图层_1" xmlns="http://www.w3.org/2000/svg" xmlns:xlink="http://www.w3.org/1999/xlink" x="0px" y="0px"
	 width="200px" height="200px" viewBox="0 0 200 200" enable-background="new 0 0 200 200" xml:space="preserve">
<path fill="#F57659" d="M75.847,8.507c7.911-2.099,16.031-3.155,24.159-3.155c12.707,0,25.063,2.5,36.74,7.44l-1.554,68.6
	L75.847,8.507L75.847,8.507z"/>
<path fill="#F0B360" d="M18.21,52.387c4.134-7.104,9.133-13.603,14.869-19.313c8.979-8.979,19.479-15.949,31.225-20.719
	l47.429,49.598L18.21,52.387L18.21,52.387z"/>
<path fill="#EFDE58" d="M8.506,124.171C6.415,116.293,5.353,108.172,5.353,100c0-12.72,2.505-25.075,7.44-36.726l68.606,1.539
	L8.506,124.171L8.506,124.171z"/>
<path fill="#BBEF5C" d="M52.387,181.789c-7.053-4.108-13.539-9.106-19.3-14.868c-8.986-8.966-15.957-19.467-20.72-31.225
	l49.598-47.41L52.387,181.789L52.387,181.789z"/>
<path fill="#61F15E" d="M100.006,194.647c-12.706,0-25.062-2.499-36.738-7.428l1.551-68.599l59.347,72.886
	C116.243,193.592,108.127,194.647,100.006,194.647L100.006,194.647z"/>
<path fill="#5BE4EE" d="M88.279,138.056l93.523,9.564c-4.103,7.039-9.088,13.526-14.875,19.299
	c-8.968,8.994-19.479,15.963-31.225,20.733L88.279,138.056L88.279,138.056z"/>
<path fill="#5C9BF6" d="M118.614,135.2l72.887-59.36c2.091,7.886,3.146,16.013,3.146,24.16c0,12.757-2.505,25.101-7.435,36.738
	L118.614,135.2L118.614,135.2z"/>
<path fill="#6D58F1" d="M147.613,18.217c7.046,4.09,13.546,9.081,19.313,14.856c8.992,8.967,15.963,19.479,20.718,31.225
	l-49.597,47.422L147.613,18.217L147.613,18.217z"/>
</svg>
