<?xml version="1.0" encoding="utf-8"?>
<!-- Generator: Adobe Illustrator 16.0.0, SVG Export Plug-In . SVG Version: 6.00 Build 0)  -->
<!DOCTYPE svg PUBLIC "-//W3C//DTD SVG 1.1//EN" "http://www.w3.org/Graphics/SVG/1.1/DTD/svg11.dtd">
<svg version="1.1" xmlns="http://www.w3.org/2000/svg" xmlns:xlink="http://www.w3.org/1999/xlink" x="0px" y="0px"
	 width="1024px" height="1024px" viewBox="0 0 1024 1024" enable-background="new 0 0 1024 1024" xml:space="preserve">
<path fill="#43BA62" d="M659.843,996.432c16.507-6.368,25.178-26.203,19.373-44.304c-3.19-9.935-10.313-17.749-19.373-21.245v-1.968
	H195.193c-69.986,0-126.721-62.219-126.721-138.973l0,0V234.056c0-76.751,56.735-138.97,126.721-138.97h633.613
	c69.986,0,126.722,62.219,126.722,138.97l0,0v370.592h1.796c5.805,18.101,23.894,27.611,40.398,21.244
	c9.059-3.495,16.186-11.309,19.371-21.244h1.794V210.895C1018.889,108.56,943.241,25.6,849.926,25.6H174.074
	C80.758,25.601,5.11,108.561,5.11,210.896v602.21c0,102.336,75.647,185.296,168.963,185.296h485.769V996.432z M913.288,813.105
	v-81.066c0-19.188-14.184-34.742-31.681-34.742s-31.68,15.555-31.68,34.742l0,0v81.066h-73.923
	c-17.497,0-31.682,15.556-31.682,34.744c0,19.186,14.185,34.74,31.682,34.74l0,0h73.923v81.066c0,19.188,14.183,34.744,31.68,34.744
	s31.681-15.556,31.681-34.743v-81.065h73.924c17.496,0,31.68-15.557,31.68-34.742c0-19.187-14.184-34.743-31.68-34.743
	L913.288,813.105L913.288,813.105z M673.951,525.619c-27.964,23.811-67.69,51.188-110.967,76.574
	c-43.022,25.246-86.319,46.603-120.766,59.573c-8.272,3.157-16.658,5.955-25.133,8.385c-1.33-6.393-2.599-13.805-3.738-22.028
	c-5.111-36.666-7.52-86.022-6.844-138.208c0.678-50.955,4.226-100.754,9.865-138.114c0.782-5.305,1.606-10.261,2.449-14.824
	c5.535,1.85,11.574,4.053,18.059,6.578c34.976,13.639,79.203,35.229,122.668,59.964c44.797,25.477,85.41,52.325,113.964,75.506
	c5.748,4.656,10.9,9.083,15.358,13.204C684.531,516.401,679.527,520.896,673.951,525.619L673.951,525.619z M765.446,511.398
	c0-68.491-342.721-254.155-385.807-228.611c-43.085,25.525-54.216,425.114,0,457.241c54.218,32.124,385.807-160.117,385.807-228.609
	V511.398z"/>
</svg>
